<?xml version="1.0" encoding="iso-8859-1"?>
<!-- Generator: Adobe Illustrator 19.0.0, SVG Export Plug-In . SVG Version: 6.00 Build 0)  -->
<svg version="1.1" id="Capa_1" xmlns="http://www.w3.org/2000/svg" xmlns:xlink="http://www.w3.org/1999/xlink" x="0px" y="0px"
	 viewBox="0 0 511.999 511.999" style="enable-background:new 0 0 511.999 511.999;" xml:space="preserve">
<g>
	<g>
		<path style="fill:#FFFFFF;"   d="M199.887,235.443c3.067,0,5.825-1.867,6.963-4.714l32.064-80.162c0.924-2.311,0.643-4.929-0.753-6.99
			c-1.394-2.06-3.721-3.295-6.209-3.295H127.226v-34.329c9.308-3.139,16.033-11.946,16.033-22.3v-8.017
			c0-12.976-10.557-23.532-23.533-23.532S96.194,62.661,96.194,75.636v8.017c0,10.354,6.724,19.16,16.032,22.3v34.329H7.5
			c-2.489,0-4.815,1.234-6.21,3.295c-1.396,2.061-1.677,4.679-0.753,6.99l32.064,80.162c1.139,2.847,3.896,4.714,6.963,4.714h16.548
			V412.83H39.564c-4.142,0-7.5,3.358-7.5,7.5v32.065c0,4.142,3.358,7.5,7.5,7.5h160.323c4.142,0,7.5-3.358,7.5-7.5V420.33
			c0-4.142-3.358-7.5-7.5-7.5h-16.548V235.443H199.887z M111.193,83.654v-8.017c0-4.704,3.828-8.532,8.532-8.532
			c4.705,0,8.533,3.828,8.533,8.532v8.017c0,4.705-3.828,8.532-8.533,8.532C115.02,92.186,111.193,88.358,111.193,83.654z
			 M159.807,187.346h8.532V412.83H111.71c-4.142,0-7.5,3.358-7.5,7.5c0,4.142,3.358,7.5,7.5,7.5h80.677v17.065H47.064V427.83h32.582
			c4.142,0,7.5-3.358,7.5-7.5c0-4.142-3.358-7.5-7.5-7.5h-8.533V187.347h56.63c4.142,0,7.5-3.358,7.5-7.5c0-4.142-3.358-7.5-7.5-7.5
			h-64.13c-4.142,0-7.5,3.358-7.5,7.5v40.597H44.642l-26.064-65.161h202.296l-26.064,65.16h-11.471v-40.597
			c0-4.142-3.358-7.5-7.5-7.5h-16.032c-4.142,0-7.5,3.358-7.5,7.5C152.307,183.988,155.665,187.346,159.807,187.346z"/>
	</g>
</g>
<g>
	<g>
		<path style="fill:#de6633;"   d="M135.758,220.443h-32.065c-8.555,0-15.516,6.961-15.516,15.517v16.032c0,8.556,6.96,15.516,15.516,15.516h32.065
			c8.556,0,15.516-6.96,15.516-15.516V235.96C151.274,227.404,144.314,220.443,135.758,220.443z M136.274,251.992
			c0,0.284-0.231,0.516-0.516,0.516h-32.065c-0.285,0-0.516-0.231-0.516-0.516V235.96c0-0.285,0.231-0.517,0.516-0.517h32.065
			c0.285,0,0.516,0.232,0.516,0.517V251.992z"/>
	</g>
</g>
<g>
	<g>
		<path style="fill:#FFFFFF;"   d="M472.436,235.443c3.067,0,5.825-1.867,6.963-4.714l32.064-80.162c0.924-2.311,0.643-4.929-0.753-6.99
			c-1.395-2.061-3.722-3.295-6.21-3.295H399.774v-34.329c9.308-3.14,16.032-11.946,16.032-22.3v-8.017
			c0-12.976-10.557-23.532-23.532-23.532c-12.976,0-23.533,10.557-23.533,23.532v8.017c0,10.354,6.724,19.161,16.033,22.3v34.329
			H280.048c-2.489,0-4.815,1.234-6.21,3.295c-1.396,2.061-1.677,4.679-0.753,6.99l32.064,80.162
			c1.139,2.847,3.896,4.714,6.963,4.714h16.548V412.83h-16.548c-4.142,0-7.5,3.358-7.5,7.5v32.065c0,4.142,3.358,7.5,7.5,7.5
			h160.323c4.142,0,7.5-3.358,7.5-7.5V420.33c0-4.142-3.358-7.5-7.5-7.5h-16.548V235.443H472.436z M383.742,83.654v-8.017
			c0-4.704,3.828-8.532,8.533-8.532c4.705,0,8.532,3.828,8.532,8.532v8.017c0,4.705-3.828,8.532-8.532,8.532
			C387.57,92.186,383.742,88.358,383.742,83.654z M432.355,187.347h8.532v225.484h-56.628c-4.142,0-7.5,3.358-7.5,7.5
			c0,4.142,3.358,7.5,7.5,7.5h80.677v17.065H319.613v-17.065h32.582c4.142,0,7.5-3.358,7.5-7.5c0-4.142-3.358-7.5-7.5-7.5h-8.533
			V187.347h56.63c4.142,0,7.5-3.358,7.5-7.5c0-4.142-3.358-7.5-7.5-7.5h-64.13c-4.142,0-7.5,3.358-7.5,7.5v40.597H317.19
			l-26.064-65.161h202.296l-26.064,65.161h-11.471v-40.597c0-4.142-3.358-7.5-7.5-7.5h-16.032c-4.142,0-7.5,3.358-7.5,7.5
			C424.855,183.989,428.213,187.347,432.355,187.347z"/>
	</g>
</g>
<g>
	<g>
		<path style="fill:#4CAF50;"   d="M408.307,220.443h-32.065c-8.556,0-15.516,6.961-15.516,15.517v16.032c0,8.556,6.96,15.516,15.516,15.516h32.065
			c8.556,0,15.516-6.96,15.516-15.516V235.96C423.823,227.404,416.862,220.443,408.307,220.443z M408.823,251.992
			c0,0.284-0.231,0.516-0.516,0.516h-32.065c-0.285,0-0.516-0.231-0.516-0.516V235.96c0-0.285,0.231-0.517,0.516-0.517h32.065
			c0.285,0,0.516,0.231,0.516,0.517V251.992z"/>
	</g>
</g>
<g>
</g>
<g>
</g>
<g>
</g>
<g>
</g>
<g>
</g>
<g>
</g>
<g>
</g>
<g>
</g>
<g>
</g>
<g>
</g>
<g>
</g>
<g>
</g>
<g>
</g>
<g>
</g>
<g>
</g>
</svg>
