<?xml version="1.0" encoding="iso-8859-1"?>
<!-- Generator: Adobe Illustrator 16.0.0, SVG Export Plug-In . SVG Version: 6.00 Build 0)  -->
<!DOCTYPE svg PUBLIC "-//W3C//DTD SVG 1.1//EN" "http://www.w3.org/Graphics/SVG/1.1/DTD/svg11.dtd">
<svg version="1.1" id="Capa_1" xmlns="http://www.w3.org/2000/svg" xmlns:xlink="http://www.w3.org/1999/xlink" x="0px" y="0px"
	 width="923.117px" height="923.117px" viewBox="0 0 923.117 923.117" style="enable-background:new 0 0 923.117 923.117;"
	 xml:space="preserve">
<g>
	<path style="fill:#FFFFFF;"   d="M224.257,923.117c1.022,0,2.054-0.029,3.086-0.09c28.946-1.678,51.052-26.504,49.375-55.45
		c-0.028-0.475-2.098-49.287,21.401-112.843c14.189-38.375,34.732-74.02,61.061-105.944c27.716-33.609,62.085-63.273,102.38-88.47
		c40.294,25.197,74.664,54.86,102.38,88.47c26.328,31.925,46.871,67.569,61.06,105.944c23.499,63.554,21.431,112.367,21.402,112.843
		c-1.678,28.946,20.427,53.772,49.374,55.45c1.034,0.061,2.063,0.09,3.086,0.09c27.606,0,50.746-21.551,52.364-49.463
		c0.412-7.104,3.133-71.83-27.743-155.333c-18.28-49.438-44.703-95.309-78.536-136.335
		c-35.688-43.273-79.626-81.081-130.893-112.686V180.136l41.966,41.966c10.251,10.251,23.687,15.377,37.123,15.377
		c13.436,0,26.872-5.126,37.123-15.377c20.502-20.502,20.502-53.744,0-74.246L497.786,15.376c-20.503-20.502-53.743-20.502-74.246,0
		L292.843,146.075c-20.503,20.502-20.503,53.744,0,74.246c20.502,20.502,53.742,20.502,74.245,0l41.967-41.966v290.951
		c-51.263,31.604-95.198,69.408-130.884,112.68c-33.833,41.026-60.256,86.896-78.536,136.335
		c-30.875,83.504-28.154,148.229-27.743,155.333C173.511,901.566,196.651,923.117,224.257,923.117z"/>
</g>
<g>
</g>
<g>
</g>
<g>
</g>
<g>
</g>
<g>
</g>
<g>
</g>
<g>
</g>
<g>
</g>
<g>
</g>
<g>
</g>
<g>
</g>
<g>
</g>
<g>
</g>
<g>
</g>
<g>
</g>
</svg>
