<svg width="411" height="284" viewBox="0 0 411 284" fill="none" xmlns="http://www.w3.org/2000/svg">
<path d="M411 0H0V261.922H411V0Z" fill="#E6E6E6" fill-opacity="0.2"/>
<path d="M184.064 35.3518H36.6864V186.842H184.064V35.3518Z" fill="white" fill-opacity="0.2"/>
<path d="M386.564 38.2897H239.186V222.283H386.564V38.2897Z" fill="white" fill-opacity="0.2"/>
<path d="M380.619 280.785C395.2 280.785 407.019 279.096 407.019 277.013C407.019 274.929 395.2 273.24 380.619 273.24C366.039 273.24 354.219 274.929 354.219 277.013C354.219 279.096 366.039 280.785 380.619 280.785Z" fill="#1E1E1E" fill-opacity="0.2"/>
<path d="M120.653 280.87C135.233 280.87 147.053 279.181 147.053 277.097C147.053 275.014 135.233 273.324 120.653 273.324C106.072 273.324 94.2522 275.014 94.2522 277.097C94.2522 279.181 106.072 280.87 120.653 280.87Z" fill="#1E1E1E" fill-opacity="0.2"/>
<path d="M411 0H0V17H411V0Z" fill="#FC743A"/>
<path d="M13.3016 12.0853C15.0769 12.0853 16.516 10.6456 16.516 8.86975C16.516 7.09387 15.0769 5.65424 13.3016 5.65424C11.5263 5.65424 10.0872 7.09387 10.0872 8.86975C10.0872 10.6456 11.5263 12.0853 13.3016 12.0853Z" fill="#E6E6E6"/>
<path d="M25.5028 12.0853C27.2781 12.0853 28.7172 10.6456 28.7172 8.86975C28.7172 7.09387 27.2781 5.65424 25.5028 5.65424C23.7275 5.65424 22.2883 7.09387 22.2883 8.86975C22.2883 10.6456 23.7275 12.0853 25.5028 12.0853Z" fill="#E6E6E6"/>
<path d="M37.704 12.0853C39.4793 12.0853 40.9185 10.6456 40.9185 8.86975C40.9185 7.09387 39.4793 5.65424 37.704 5.65424C35.9287 5.65424 34.4896 7.09387 34.4896 8.86975C34.4896 10.6456 35.9287 12.0853 37.704 12.0853Z" fill="#E6E6E6"/>
<path d="M354.071 87.6428H353.178V63.1778C353.178 61.3183 352.812 59.477 352.101 57.7591C351.39 56.0411 350.347 54.4802 349.032 53.1653C347.718 51.8504 346.158 50.8074 344.44 50.0958C342.723 49.3843 340.882 49.018 339.023 49.018H287.208C285.349 49.018 283.508 49.3843 281.791 50.0958C280.074 50.8074 278.513 51.8504 277.199 53.1653C275.884 54.4802 274.842 56.0411 274.13 57.7591C273.419 59.477 273.053 61.3183 273.053 63.1778V197.395C273.053 199.255 273.419 201.096 274.13 202.814C274.842 204.532 275.884 206.093 277.199 207.408C278.513 208.722 280.074 209.765 281.791 210.477C283.508 211.189 285.349 211.555 287.208 211.555H339.023C340.882 211.555 342.723 211.189 344.44 210.477C346.158 209.765 347.718 208.722 349.032 207.408C350.347 206.093 351.39 204.532 352.101 202.814C352.812 201.096 353.178 199.255 353.178 197.395V105.057H354.071V87.6428Z" fill="black"/>
<path d="M339.014 52.7019H332.251C332.562 53.4647 332.68 54.2923 332.596 55.1119C332.512 55.9314 332.228 56.7177 331.769 57.4015C331.309 58.0853 330.689 58.6455 329.962 59.033C329.235 59.4204 328.424 59.623 327.601 59.6231H297.916C297.093 59.623 296.282 59.4204 295.555 59.0329C294.828 58.6455 294.208 58.0853 293.748 57.4015C293.289 56.7177 293.005 55.9314 292.921 55.1119C292.837 54.2924 292.955 53.4647 293.267 52.7019H286.949C285.561 52.7019 284.186 52.9754 282.904 53.5068C281.621 54.0382 280.456 54.8171 279.475 55.799C278.493 56.7809 277.714 57.9466 277.183 59.2296C276.652 60.5125 276.378 61.8875 276.378 63.2762V197.297C276.378 198.685 276.652 200.06 277.183 201.343C277.714 202.626 278.493 203.792 279.475 204.774C280.456 205.756 281.621 206.535 282.904 207.066C284.186 207.597 285.561 207.871 286.949 207.871H339.014C340.402 207.871 341.777 207.597 343.06 207.066C344.342 206.535 345.507 205.756 346.489 204.774C347.471 203.792 348.249 202.626 348.78 201.343C349.312 200.06 349.585 198.685 349.585 197.297V63.2762C349.585 60.4717 348.471 57.7821 346.489 55.799C344.507 53.8159 341.818 52.7019 339.014 52.7019Z" fill="white"/>
<path d="M161.695 131.045H59.2591V135.719H161.695V131.045Z" fill="#E6E6E6"/>
<path d="M161.695 146.136H59.2591V150.81H161.695V146.136Z" fill="#FC743A"/>
<path d="M161.695 161.227H59.2591V165.901H161.695V161.227Z" fill="#E6E6E6"/>
<path d="M343.462 141.243H283.662V145.917H343.462V141.243Z" fill="#E6E6E6"/>
<path d="M343.462 155.753H283.662V160.427H343.462V155.753Z" fill="#E6E6E6"/>
<path d="M343.462 170.264H283.662V174.938H343.462V170.264Z" fill="#E6E6E6"/>
<path d="M349.715 242.843V232.873H339.748V242.843H349.715Z" fill="black"/>
<path d="M333.657 242.843V232.873H323.69V242.843H333.657Z" fill="#FC743A"/>
<path d="M317.6 242.843V232.873H307.633V242.843H317.6Z" fill="black"/>
<path d="M301.542 242.843V232.873H291.575V242.843H301.542Z" fill="black"/>
<path d="M285.484 242.843V232.873H275.518V242.843H285.484Z" fill="black"/>
<path d="M329.593 80.6729H296.37V113.906H329.593V80.6729Z" fill="#FC743A"/>
<path d="M97.2728 159.96L96.8428 160.82L95.5527 154.368C95.5527 154.368 93.8326 147.485 97.2728 147.485C100.713 147.485 99.8529 154.368 99.8529 154.368V159.1L97.2728 159.96Z" fill="#A0616A"/>
<path d="M153.695 159.079L154.125 159.939L155.415 153.487C155.415 153.487 157.135 146.604 153.695 146.604C150.255 146.604 151.115 153.487 151.115 153.487V158.219L153.695 159.079Z" fill="#A0616A"/>
<path d="M116.194 208.336L111.034 240.169L113.614 271.141L119.634 268.56L118.774 245.331L124.795 226.833L126.084 248.772L123.505 271.571L131.245 272.432L136.835 225.543L136.406 209.627L116.194 208.336Z" fill="black"/>
<path d="M116.194 267.27L113.184 272.001V282.575C113.184 282.879 113.292 283.174 113.49 283.406C113.687 283.637 113.96 283.791 114.261 283.84C115.736 284.082 118.305 284.254 119.204 282.756C120.494 280.605 119.634 275.873 119.634 275.873C119.634 275.873 121.354 272.432 120.494 269.851C119.634 267.27 118.774 266.839 118.774 266.839L116.194 267.27Z" fill="black"/>
<path d="M129.095 271.571L129.955 272.862C129.955 272.862 131.245 274.152 130.385 275.013C129.754 275.681 129.178 276.401 128.665 277.163C128.665 277.163 123.934 278.454 123.934 276.733V271.141L129.095 271.571Z" fill="black"/>
<path d="M127.545 173.325C130.693 173.325 133.245 170.772 133.245 167.623C133.245 164.474 130.693 161.921 127.545 161.921C124.397 161.921 121.845 164.474 121.845 167.623C121.845 170.772 124.397 173.325 127.545 173.325Z" fill="#A0616A"/>
<path d="M123.719 169.406L123.289 177.579L131.03 178.009L130.6 169.836L123.719 169.406Z" fill="#A0616A"/>
<path d="M132.105 178.224L130.884 175.241C130.884 175.241 125.225 173.062 123.504 175.213L122.644 177.794L115.764 176.073L111.894 184.677L115.334 209.197C115.334 209.197 124.365 220.811 136.405 209.627L139.846 186.398L137.265 177.364L132.105 178.224Z" fill="#2D7C72"/>
<path d="M136.406 179.085L137.265 177.364L145.866 172.202L151.115 156.66L155.176 158.401L150.596 176.934L138.125 188.548L136.406 179.085Z" fill="#2D7C72"/>
<path d="M116.624 176.934L115.764 176.074L106.733 170.481L100.283 157.576L95.1229 159.297L100.713 175.213L114.474 186.398L116.624 176.934Z" fill="#2D7C72"/>
<path d="M131.776 158.891L132.708 158.424L131.31 157.958V157.492C131.31 157.492 124.32 154.695 123.388 159.357C122.185 160.973 121.535 162.935 121.535 164.951C121.535 166.966 122.185 168.928 123.388 170.545V171.943L130.844 172.875L131.776 170.078C131.776 170.078 136.436 161.687 131.776 158.891Z" fill="#2F2E41"/>
<path d="M161.435 52.7645H59.3153V111.387H161.435V52.7645Z" fill="#E6E6E6"/>
<path d="M363.364 169.038L363.837 165.985C363.837 165.985 366.595 159.714 364.415 159.376C362.235 159.037 360.416 165.008 360.416 165.008L361.214 171.384L363.364 169.038Z" fill="#FFB8B8"/>
<path d="M385.684 186.345L366.199 182.43L363.935 168.233L358.199 167.79L358.48 186.145L375.409 195.024L385.684 186.345Z" fill="#236058"/>
<path d="M332.676 165.283H392.476V160.609H332.676V165.283Z" fill="#FC743A"/>
<path d="M359.557 167.991L359.561 164.902C359.561 164.902 361.334 158.284 359.128 158.281C356.921 158.279 356.031 164.456 356.031 164.456L357.788 170.637L359.557 167.991Z" fill="#FFB8B8"/>
<path d="M384.919 176.84L387.593 176.188C388.613 176.189 389.621 175.964 390.543 175.527C391.465 175.091 392.279 174.455 392.926 173.666C393.572 172.877 394.035 171.953 394.281 170.963C394.527 169.973 394.55 168.94 394.348 167.94C394.349 166.758 394.118 165.587 393.667 164.495C393.217 163.403 392.555 162.41 391.721 161.573C390.886 160.736 389.896 160.072 388.805 159.619C387.714 159.165 386.544 158.931 385.363 158.929C384.182 158.928 383.012 159.159 381.92 159.61C380.828 160.061 379.835 160.722 378.999 161.557C378.162 162.392 377.498 163.383 377.045 164.474C376.591 165.565 376.357 166.735 376.356 167.917C376.01 169.121 375.986 170.394 376.287 171.61C376.588 172.826 377.202 173.941 378.07 174.845C378.937 175.748 380.026 176.408 381.228 176.758C382.43 177.108 383.703 177.136 384.919 176.84Z" fill="#2F2E41"/>
<path d="M369.196 221.406L371.372 245.242L375.313 268.638L381.931 268.646L381.078 245.695L377.583 217.886L369.196 221.406Z" fill="black"/>
<path d="M376.198 267.315L371.782 269.958C371.782 269.958 364.722 270.831 366.043 273.04C367.364 275.248 382.807 273.944 382.808 273.061C382.809 272.178 382.374 267.323 381.492 267.322L376.198 267.315Z" fill="black"/>
<path d="M388.731 219.347C388.731 219.347 388.607 222.755 385.512 228.047L385.933 244.377L401.791 264.699L396.049 269.547L376.663 247.455L371.843 220.968L378.028 214.797L388.731 219.347Z" fill="black"/>
<path d="M400.467 264.698C400.467 264.698 405.76 265.587 404.875 267.793C403.99 269.998 401.771 280.146 396.037 278.815C396.037 278.815 393.39 278.812 394.274 277.047C394.806 275.986 395.397 274.956 396.043 273.96L396.05 268.223L400.467 264.698Z" fill="black"/>
<path d="M382.054 177.288C385.709 177.288 388.672 174.324 388.672 170.668C388.672 167.012 385.709 164.048 382.054 164.048C378.399 164.048 375.437 167.012 375.437 170.668C375.437 174.324 378.399 177.288 382.054 177.288Z" fill="#FFB8B8"/>
<path d="M385.137 175.085L385.128 182.588L378.069 182.579L378.96 175.078L385.137 175.085Z" fill="#FFB8B8"/>
<path d="M376.307 179.929L378.446 179.403L385.131 179.94C385.131 179.94 388.656 183.475 388.214 184.357C387.772 185.239 385.539 206.863 385.539 206.863L389.49 222.315L375.371 223.18L368.312 222.288L369.671 194.485C369.671 194.485 366.592 186.978 370.566 184.777C372.81 183.599 374.77 181.944 376.307 179.929Z" fill="#2D7C72"/>
<path d="M384.246 181.704L364.394 180.797L359.999 167.11L354.263 167.543L357.328 185.643L375.41 191.844L384.246 181.704Z" fill="#2D7C72"/>
<path d="M394.829 165.79C397.188 165.79 399.099 163.878 399.099 161.519C399.099 159.16 397.188 157.248 394.829 157.248C392.471 157.248 390.56 159.16 390.56 161.519C390.56 163.878 392.471 165.79 394.829 165.79Z" fill="#2F2E41"/>
<path d="M390.89 159.223C390.89 158.591 391.031 157.968 391.302 157.397C391.572 156.826 391.966 156.322 392.455 155.922C392.944 155.522 393.516 155.236 394.129 155.083C394.742 154.931 395.381 154.917 396 155.041C395.454 154.783 394.859 154.644 394.255 154.633C393.65 154.622 393.051 154.739 392.495 154.977C391.94 155.215 391.442 155.569 391.033 156.014C390.624 156.459 390.315 156.986 390.125 157.56C389.935 158.134 389.869 158.741 389.932 159.343C389.994 159.944 390.183 160.525 390.487 161.047C390.791 161.57 391.202 162.022 391.694 162.374C392.185 162.725 392.745 162.968 393.338 163.087C392.605 162.742 391.986 162.195 391.553 161.511C391.119 160.827 390.889 160.033 390.89 159.223Z" fill="#2F2E41"/>
<path d="M387.227 161.645L381.47 160.585L377.044 163.361C375.955 164.043 375.085 165.023 374.537 166.185C373.989 167.347 373.785 168.642 373.95 169.916L378.384 168.792L379.377 166.302L380.559 168.241L385.356 176.63L390.212 173.988L393.307 169.137L387.227 161.645Z" fill="#2F2E41"/>
<path d="M59.604 52.2612L59.0265 53.2678L161.147 111.89L161.724 110.884L59.604 52.2612Z" fill="white"/>
<path d="M161.149 52.2651L59.0243 110.88L59.6017 111.886L161.726 53.2717L161.149 52.2651Z" fill="white"/>
<path d="M297.039 80.2143L296.218 81.0351L329.291 114.119L330.112 113.298L297.039 80.2143Z" fill="white"/>
<path d="M329.291 80.2143L296.218 113.298L297.039 114.119L330.112 81.035L329.291 80.2143Z" fill="white"/>
</svg>
