<?xml version="1.0" encoding="iso-8859-1"?>
<!-- Generator: Adobe Illustrator 19.0.0, SVG Export Plug-In . SVG Version: 6.00 Build 0)  -->
<svg version="1.1" id="Capa_1" xmlns="http://www.w3.org/2000/svg" xmlns:xlink="http://www.w3.org/1999/xlink" x="0px" y="0px"
	 viewBox="0 0 512.174 512.174" style="enable-background:new 0 0 512.174 512.174;" xml:space="preserve">
<path style="fill:#4CAF50;" d="M256.109,16.124C114.783,16.096,0.193,130.641,0.165,271.967
	c-0.018,92.317,49.689,177.487,130.077,222.877c2.456,1.415,5.38,1.777,8.107,1.003c2.708-0.756,5.008-2.55,6.4-4.992
	l78.933-139.499c2.895-5.126,1.091-11.628-4.032-14.528c-35.954-20.194-48.73-65.712-28.535-101.666
	c20.194-35.954,65.712-48.73,101.666-28.535s48.73,65.712,28.535,101.666c-6.712,11.951-16.585,21.823-28.535,28.535
	c-5.123,2.9-6.927,9.402-4.032,14.528l78.72,139.499c1.388,2.45,3.689,4.253,6.4,5.013c0.929,0.269,1.891,0.406,2.859,0.405
	c1.84-0.002,3.648-0.48,5.248-1.387c123.087-69.445,166.573-225.522,97.129-348.61C433.714,65.823,348.484,16.079,256.109,16.124z"
	/>
<path style="fill:#FFFFFF;"  d="M376.77,496.252c-0.967,0-1.93-0.136-2.859-0.405c-2.711-0.761-5.012-2.563-6.4-5.013l-78.933-139.499
	c-2.906-5.124-1.108-11.634,4.016-14.54c0.005-0.003,0.01-0.006,0.016-0.009c35.957-20.189,48.741-65.704,28.552-101.661
	c-20.189-35.957-65.704-48.74-101.661-28.552s-48.741,65.704-28.552,101.661c6.714,11.959,16.593,21.837,28.552,28.552
	c5.129,2.898,6.938,9.404,4.041,14.534c-0.003,0.005-0.006,0.01-0.009,0.016l-78.805,139.52c-2.906,5.124-9.416,6.922-14.541,4.016
	c-0.003-0.002-0.006-0.003-0.009-0.005C7.063,425.351-36.39,269.194,33.124,146.078S258.796-20.49,381.912,49.025
	s166.568,225.672,97.054,348.787c-22.914,40.582-56.471,74.14-97.054,97.054C380.343,495.755,378.574,496.232,376.77,496.252z
	 M312.152,349.607l68.523,121.237c109.833-68.801,143.095-213.613,74.294-323.446S241.355,4.303,131.522,73.104
	S-11.573,286.717,57.228,396.55c18.831,30.062,44.232,55.463,74.294,74.294l68.523-121.237
	c-43.047-30.952-52.853-90.939-21.901-133.986s90.939-52.853,133.986-21.901s52.853,90.939,21.901,133.986
	c-6.067,8.438-13.463,15.834-21.901,21.901H312.152z"/>
<g>
</g>
<g>
</g>
<g>
</g>
<g>
</g>
<g>
</g>
<g>
</g>
<g>
</g>
<g>
</g>
<g>
</g>
<g>
</g>
<g>
</g>
<g>
</g>
<g>
</g>
<g>
</g>
<g>
</g>
</svg>
