<svg width="115" height="74" viewBox="0 0 115 74" fill="none" xmlns="http://www.w3.org/2000/svg">
<path d="M88.8561 53.4214H4.63597C2.0756 53.4214 0 55.4949 0 58.0526V58.8757C0 61.4334 2.0756 63.5069 4.63597 63.5069H88.8561C91.4164 63.5069 93.492 61.4334 93.492 58.8757V58.0526C93.492 55.4949 91.4164 53.4214 88.8561 53.4214Z" fill="#F2F2F2" fill-opacity="0.3"/>
<path d="M109.802 63.0143H25.5816C23.0212 63.0143 20.9456 65.0877 20.9456 67.6454V68.4685C20.9456 71.0262 23.0212 73.0996 25.5816 73.0996H109.802C112.362 73.0996 114.438 71.0262 114.438 68.4685V67.6454C114.438 65.0877 112.362 63.0143 109.802 63.0143Z" fill="#F2F2F2" fill-opacity="0.5"/>
<path d="M50.1159 67.2453C68.7043 67.2453 83.7732 52.1919 83.7732 33.6226C83.7732 15.0534 68.7043 0 50.1159 0C31.5275 0 16.4586 15.0534 16.4586 33.6226C16.4586 52.1919 31.5275 67.2453 50.1159 67.2453Z" fill="#FCCC63"/>
</svg>
