<svg width="411" height="429" viewBox="0 0 411 429" fill="none" xmlns="http://www.w3.org/2000/svg">
<path d="M-1.25998e-05 340C0.5 333.5 -3.14345 328.5 14.7989 310.5C27.6822 297.575 50.3751 284.055 88.1021 286.496C133.429 289.44 152.78 278.699 160.75 270.831C170.67 261.063 183.213 254.351 196.941 252.142C219.301 248.542 251.213 251.978 283.783 284.24C343.767 343.659 395.505 321.094 397.754 321.094C398.854 321.094 402.282 323.7 405.5 326.364C408.865 329.15 411 330 411 330V429H-1.25998e-05C-1.25998e-05 429 -6.68401e-06 346.5 -1.25998e-05 340Z" fill="#EDEDED" fill-opacity="0.2"/>
<g opacity="0.5">
<path opacity="0.5" d="M98.0929 75.4661C118.604 75.4661 135.232 58.5724 135.232 37.7331C135.232 16.8937 118.604 0 98.0929 0C77.5814 0 60.9535 16.8937 60.9535 37.7331C60.9535 58.5724 77.5814 75.4661 98.0929 75.4661Z" fill="url(#paint0_linear)"/>
</g>
<g opacity="0.2">
<path opacity="0.2" d="M213.992 251.623C213.932 251.61 213.992 251.623 213.992 251.623V251.623Z" fill="url(#paint1_linear)"/>
</g>
<g opacity="0.2">
<path opacity="0.2" d="M214.655 265.126H214.71C214.722 265.122 214.732 265.114 214.739 265.105C214.746 265.095 214.75 265.083 214.751 265.071C214.755 265.052 214.755 265.033 214.751 265.015V264.968C214.706 264.857 214.6 264.708 214.541 264.578L214.513 264.508C214.511 264.477 214.511 264.446 214.513 264.415C214.513 264.415 214.513 264.387 214.513 264.373L215.502 261.076L215.525 260.997C215.525 260.997 216.783 261.546 217.108 262.643C217.296 263.176 217.305 263.756 217.136 264.294L217.113 264.35H217.136V264.954H218.509C218.605 264.908 218.477 264.787 218.349 264.666L218.317 264.634L218.234 264.545C218.211 264.518 218.191 264.489 218.175 264.457L218.152 264.401V264.369H218.111V264.317C218.282 263.51 218.243 262.67 217.998 261.883C217.752 261.095 217.308 260.386 216.71 259.826C217.041 258.822 217.041 257.737 216.71 256.734C216.838 256.641 219.333 254.809 219.314 252.437C219.322 252.31 219.322 252.183 219.314 252.056C219.314 252.056 219.529 251.875 219.314 251.544V251.516H219.291H219.14C219.042 251.526 218.947 251.558 218.861 251.609C218.861 251.609 218.719 252.074 218.861 252.195H218.825C218.825 252.195 217.346 255.45 216.358 255.915L216.289 255.873V255.45C216.29 255.432 216.29 255.413 216.289 255.394C216.29 255.377 216.29 255.36 216.289 255.343C216.4 255.285 216.501 255.208 216.587 255.115C216.619 255.08 216.65 255.043 216.678 255.004L216.715 254.948L216.751 254.883L216.779 254.822C216.799 254.779 216.815 254.734 216.829 254.688V254.632V254.562C216.829 254.562 216.829 254.525 216.829 254.506C216.829 254.483 216.829 254.46 216.829 254.432C216.829 254.299 216.806 254.166 216.761 254.041C216.761 254.007 216.747 253.973 216.719 253.939L216.697 253.888L216.664 253.832C216.689 253.801 216.718 253.774 216.751 253.753C216.815 253.717 216.885 253.695 216.957 253.688H217.136H217.172C217.199 253.677 217.223 253.663 217.246 253.646C217.281 253.616 217.321 253.594 217.365 253.581H217.095H217.053H217.017H216.976H216.939H216.902H216.866H216.829H216.793L216.719 253.548C216.757 253.564 216.798 253.573 216.838 253.576H216.994H217.021L217.049 253.553V253.516H216.999H216.967C216.904 253.524 216.841 253.524 216.779 253.516H216.646H216.587L216.532 253.493C216.607 253.52 216.69 253.517 216.763 253.482C216.835 253.448 216.891 253.385 216.918 253.309C216.946 253.233 216.942 253.148 216.908 253.074C216.874 253.001 216.813 252.944 216.738 252.916L216.788 252.884C216.841 252.838 216.874 252.772 216.88 252.702C216.886 252.673 216.886 252.643 216.88 252.614L216.848 252.642H216.82C216.733 252.704 216.628 252.733 216.523 252.725H216.486C216.393 252.701 216.302 252.667 216.216 252.623L216.138 252.595H216.115H216.051H216.015H215.964H215.722C215.38 252.607 215.054 252.746 214.806 252.986C214.749 253.043 214.697 253.105 214.651 253.172C214.618 252.831 214.679 252.488 214.829 252.181H214.802H214.719L214.678 252.26C214.7 252.148 214.742 252.041 214.802 251.944H214.774C214.835 251.875 214.869 251.786 214.869 251.693C214.869 251.601 214.835 251.511 214.774 251.442C214.559 251.112 214.161 251.368 214.161 251.368C214.129 251.475 214.107 251.586 214.097 251.698L214.033 251.67C213.96 251.921 213.145 254.804 214.491 256.645C214.489 256.684 214.489 256.723 214.491 256.761V259.868L213.575 264.127L213.397 264.931L214.683 265.145L214.655 265.126ZM214.884 255.06C214.957 255.121 215.037 255.172 215.122 255.213C215.12 255.242 215.12 255.272 215.122 255.301V255.706L215.044 255.743C214.985 255.543 214.935 255.311 214.88 255.06H214.884Z" fill="url(#paint2_linear)"/>
</g>
<path d="M219.328 252.419C219.328 252.419 219.566 252.214 219.328 251.851C219.09 251.489 218.651 251.772 218.651 251.772C218.651 251.772 218.491 252.298 218.651 252.419C218.811 252.539 219.328 252.419 219.328 252.419Z" fill="#CA7070"/>
<path d="M216.866 265.977H217.964C217.96 266.03 217.968 266.083 217.986 266.133C218.004 266.183 218.033 266.228 218.07 266.266C218.216 266.438 218.527 266.647 218.376 266.731H216.866V265.977Z" fill="#00695C"/>
<path opacity="0.2" d="M217.987 266.266C217.95 266.228 217.922 266.183 217.903 266.133C217.885 266.083 217.878 266.03 217.882 265.977H217.96C217.956 266.03 217.963 266.083 217.981 266.133C217.999 266.183 218.028 266.228 218.065 266.266C218.211 266.438 218.523 266.647 218.372 266.731H218.294C218.431 266.647 218.134 266.438 217.987 266.266Z" fill="white"/>
<path d="M212.948 265.749L213.992 265.935C213.963 266.06 213.98 266.19 214.038 266.303C214.152 266.54 214.404 266.847 214.253 266.912L212.765 266.666L212.948 265.749Z" fill="#00695C"/>
<path d="M213.452 251.926C213.452 251.926 212.276 255.697 214.248 257.784L214.82 257.319C214.82 257.319 213.653 253.204 214.308 252.237C213.154 251.87 213.452 251.926 213.452 251.926Z" fill="#00695C"/>
<path d="M214.266 252.256C214.266 252.256 214.504 252.051 214.266 251.689C214.028 251.326 213.589 251.609 213.589 251.609C213.589 251.609 213.429 252.135 213.589 252.256C213.749 252.377 214.266 252.256 214.266 252.256Z" fill="#CA7070"/>
<path opacity="0.2" d="M213.946 266.284C213.888 266.171 213.872 266.041 213.9 265.917L212.948 265.759L213.992 265.935C213.963 266.06 213.98 266.19 214.038 266.303C214.152 266.54 214.404 266.847 214.253 266.912H214.189C214.289 266.8 214.056 266.512 213.946 266.284Z" fill="white"/>
<path d="M215.2 257.119H215.292C215.575 257.119 215.804 256.886 215.804 256.599V255.957C215.804 255.669 215.575 255.436 215.292 255.436H215.2C214.917 255.436 214.687 255.669 214.687 255.957V256.599C214.687 256.886 214.917 257.119 215.2 257.119Z" fill="#CA7070"/>
<path opacity="0.2" d="M214.738 257.566C214.738 257.566 213.584 253.502 214.211 252.502H214.303H214.33C213.676 253.469 214.843 257.584 214.843 257.584L214.271 258.049L214.221 257.994L214.738 257.566Z" fill="white"/>
<path d="M215.223 256.027C215.905 256.027 216.459 255.465 216.459 254.771C216.459 254.078 215.905 253.516 215.223 253.516C214.54 253.516 213.987 254.078 213.987 254.771C213.987 255.465 214.54 256.027 215.223 256.027Z" fill="#CA7070"/>
<path opacity="0.2" d="M215.662 256.552V256.004C215.667 255.963 215.667 255.923 215.662 255.883C215.904 255.757 216.098 255.554 216.215 255.305C216.332 255.056 216.365 254.775 216.309 254.505C216.252 254.235 216.11 253.991 215.904 253.812C215.698 253.632 215.439 253.526 215.168 253.511H215.237C215.514 253.511 215.783 253.605 216.001 253.779C216.219 253.953 216.373 254.196 216.439 254.47C216.504 254.744 216.477 255.032 216.362 255.288C216.247 255.544 216.05 255.754 215.804 255.883C215.808 255.923 215.808 255.963 215.804 256.004V256.552C215.804 256.703 215.745 256.847 215.641 256.953C215.536 257.06 215.394 257.119 215.246 257.119H215.177C215.312 257.101 215.436 257.034 215.525 256.929C215.615 256.825 215.663 256.691 215.662 256.552Z" fill="white"/>
<path d="M213.969 261.03C213.969 261.03 216.353 261.304 216.44 261.03C216.814 259.913 216.814 258.702 216.44 257.584C216.44 257.42 216.408 257.256 216.346 257.104C216.284 256.952 216.193 256.813 216.078 256.697C215.964 256.58 215.827 256.488 215.677 256.425C215.527 256.362 215.367 256.329 215.205 256.329C214.877 256.329 214.562 256.461 214.331 256.697C214.099 256.932 213.969 257.251 213.969 257.584V261.03Z" fill="#00695C"/>
<path d="M213.969 261.03L212.893 266.052H213.969L215.086 262.332C215.086 262.332 216.459 262.941 216.838 264.155C217.069 264.767 217.069 265.444 216.838 266.056H217.996V266.001C218.187 265.105 218.143 264.175 217.869 263.302C217.594 262.43 217.098 261.646 216.431 261.03" fill="#263238"/>
<path opacity="0.2" d="M216.28 261.03C216.654 259.913 216.654 258.702 216.28 257.584C216.28 257.266 216.16 256.959 215.944 256.726C215.729 256.494 215.435 256.354 215.122 256.334H215.2C215.528 256.334 215.842 256.466 216.074 256.701C216.305 256.937 216.436 257.256 216.436 257.589C216.809 258.706 216.809 259.917 216.436 261.035C216.404 261.132 216.079 261.16 215.671 261.155C216.024 261.146 216.28 261.114 216.28 261.03Z" fill="white"/>
<path d="M216.459 257.566C216.459 257.566 219.662 255.297 219.328 252.423H218.614C218.614 252.423 216.898 256.19 215.804 256.557C214.71 256.924 216.459 257.566 216.459 257.566Z" fill="#00695C"/>
<g opacity="0.2">
<path opacity="0.2" d="M215.063 262.411L213.969 266.07H213.809L214.925 262.35L215.063 262.411Z" fill="white"/>
<path opacity="0.2" d="M216.28 261.049H216.44C217.107 261.665 217.603 262.448 217.878 263.321C218.153 264.193 218.197 265.124 218.005 266.019V266.075H217.845V266.019C218.036 265.124 217.992 264.193 217.718 263.321C217.443 262.448 216.947 261.665 216.28 261.049Z" fill="white"/>
</g>
<path opacity="0.2" d="M219.209 252.451H219.328C219.648 255.329 216.459 257.594 216.459 257.594L216.381 257.561C216.738 257.296 219.507 255.143 219.209 252.451Z" fill="white"/>
<path d="M216.207 254.209C216.139 254.371 216.091 254.541 216.065 254.716C216.033 254.894 215.967 255.064 215.869 255.216C215.772 255.367 215.645 255.498 215.497 255.599C215.327 255.693 215.137 255.745 214.944 255.752C214.797 255.771 214.649 255.758 214.508 255.715C214.367 255.672 214.236 255.599 214.124 255.501C213.995 255.358 213.908 255.181 213.873 254.99C213.811 254.706 213.821 254.41 213.901 254.131C213.981 253.851 214.128 253.597 214.33 253.39C214.536 253.189 214.793 253.05 215.072 252.99C215.351 252.93 215.641 252.951 215.909 253.051C216.006 253.099 216.107 253.136 216.211 253.163C216.294 253.179 216.379 253.174 216.459 253.148C216.539 253.122 216.611 253.076 216.669 253.014C216.682 253.056 216.685 253.1 216.678 253.144C216.671 253.187 216.653 253.229 216.627 253.264C216.602 253.299 216.568 253.328 216.529 253.348C216.49 253.367 216.447 253.377 216.404 253.376C216.495 253.421 216.594 253.447 216.696 253.453C216.797 253.458 216.898 253.443 216.994 253.409C216.94 253.525 216.845 253.616 216.728 253.663C216.611 253.711 216.48 253.711 216.362 253.665C216.587 253.766 216.831 253.817 217.076 253.813C217.026 253.813 216.925 253.911 216.861 253.93C216.782 253.937 216.702 253.937 216.623 253.93C216.535 253.93 216.448 253.957 216.374 254.006C216.3 254.056 216.242 254.126 216.207 254.209Z" fill="#263238"/>
<g opacity="0.2">
<path opacity="0.2" d="M216.372 253.381C216.463 253.425 216.563 253.451 216.664 253.455C216.532 253.465 216.4 253.439 216.28 253.381C216.319 253.381 216.357 253.373 216.392 253.357C216.428 253.342 216.46 253.319 216.486 253.29C216.512 253.261 216.532 253.227 216.545 253.19C216.558 253.153 216.562 253.113 216.559 253.074L216.623 253.018C216.636 253.059 216.639 253.103 216.633 253.145C216.626 253.188 216.61 253.228 216.586 253.263C216.561 253.298 216.529 253.327 216.492 253.348C216.455 253.368 216.414 253.379 216.372 253.381Z" fill="white"/>
<path opacity="0.2" d="M216.124 253.163C216.02 253.136 215.919 253.099 215.822 253.051C215.676 252.992 215.522 252.959 215.365 252.953C215.554 252.947 215.743 252.98 215.919 253.051C216.015 253.099 216.116 253.136 216.221 253.163H216.262C216.216 253.17 216.17 253.17 216.124 253.163Z" fill="white"/>
<path opacity="0.2" d="M216.738 253.93C216.802 253.93 216.902 253.813 216.953 253.813C216.707 253.817 216.463 253.766 216.239 253.665C216.29 253.685 216.344 253.696 216.399 253.697C216.602 253.776 216.818 253.814 217.035 253.809C216.985 253.809 216.884 253.906 216.82 253.925C216.766 253.934 216.71 253.934 216.655 253.925L216.738 253.93Z" fill="white"/>
<path opacity="0.2" d="M214.861 255.752C215.055 255.745 215.245 255.693 215.415 255.599C215.563 255.498 215.689 255.367 215.787 255.216C215.884 255.064 215.951 254.894 215.983 254.716C216.008 254.541 216.056 254.371 216.124 254.209C216.16 254.134 216.215 254.07 216.284 254.024C216.352 253.979 216.432 253.952 216.513 253.948H216.591C216.509 253.952 216.43 253.979 216.362 254.024C216.293 254.07 216.238 254.134 216.202 254.209C216.134 254.371 216.086 254.541 216.06 254.716C216.029 254.894 215.962 255.064 215.865 255.216C215.767 255.367 215.641 255.498 215.493 255.599C215.322 255.693 215.133 255.745 214.939 255.752H214.861Z" fill="white"/>
<path opacity="0.2" d="M216.468 253.702C216.552 253.696 216.634 253.669 216.705 253.622C216.776 253.576 216.834 253.512 216.875 253.437L216.967 253.409C216.923 253.504 216.852 253.583 216.762 253.635C216.673 253.687 216.57 253.711 216.468 253.702Z" fill="white"/>
</g>
<path opacity="0.2" d="M219.25 252.419C219.25 252.419 219.488 252.214 219.25 251.851C219.219 251.798 219.176 251.754 219.124 251.721C219.072 251.689 219.013 251.67 218.953 251.665C219.026 251.657 219.101 251.67 219.167 251.703C219.234 251.736 219.289 251.787 219.328 251.851C219.566 252.214 219.328 252.419 219.328 252.419C219.178 252.452 219.024 252.469 218.87 252.47C218.998 252.463 219.125 252.446 219.25 252.419Z" fill="white"/>
<path d="M224.706 247.904C224.706 247.904 223.529 251.675 225.502 253.762L226.074 253.297C226.074 253.297 224.907 249.182 225.561 248.215C224.408 247.848 224.706 247.904 224.706 247.904Z" fill="#FF5252"/>
<path d="M225.52 248.238C225.52 248.238 225.758 248.034 225.52 247.671C225.282 247.308 224.843 247.592 224.843 247.592C224.843 247.592 224.683 248.118 224.843 248.238C225.003 248.359 225.52 248.238 225.52 248.238Z" fill="#F6B9AD"/>
<path d="M226.454 253.102H226.545C226.829 253.102 227.058 252.869 227.058 252.581V251.94C227.058 251.652 226.829 251.419 226.545 251.419H226.454C226.171 251.419 225.941 251.652 225.941 251.94V252.581C225.941 252.869 226.171 253.102 226.454 253.102Z" fill="#F6B9AD"/>
<path opacity="0.2" d="M225.992 253.562C225.992 253.562 224.838 249.498 225.465 248.499H225.557H225.584C224.93 249.466 226.097 253.581 226.097 253.581L225.525 254.046L225.475 253.99L225.992 253.562Z" fill="white"/>
<path d="M226.477 252.005C227.159 252.005 227.712 251.443 227.712 250.749C227.712 250.056 227.159 249.494 226.477 249.494C225.794 249.494 225.241 250.056 225.241 250.749C225.241 251.443 225.794 252.005 226.477 252.005Z" fill="#F6B9AD"/>
<path opacity="0.2" d="M226.916 252.53V251.986C226.92 251.946 226.92 251.905 226.916 251.865C227.158 251.74 227.352 251.537 227.469 251.288C227.586 251.038 227.619 250.757 227.563 250.487C227.506 250.217 227.364 249.974 227.158 249.794C226.952 249.615 226.693 249.509 226.422 249.494H226.491C226.768 249.494 227.037 249.588 227.255 249.762C227.473 249.936 227.627 250.179 227.693 250.453C227.758 250.726 227.731 251.014 227.616 251.271C227.501 251.527 227.304 251.736 227.058 251.865C227.062 251.905 227.062 251.946 227.058 251.986V252.535C227.058 252.685 226.999 252.83 226.895 252.936C226.79 253.042 226.648 253.102 226.5 253.102H226.431C226.567 253.084 226.691 253.015 226.781 252.91C226.87 252.805 226.918 252.669 226.916 252.53Z" fill="white"/>
<path d="M225.223 257.008C225.223 257.008 227.607 257.282 227.694 257.008C227.978 256.124 227.237 255.148 227.598 254.683C227.71 254.519 227.777 254.328 227.794 254.129C227.811 253.93 227.777 253.73 227.694 253.548C227.694 253.384 227.662 253.22 227.6 253.068C227.538 252.916 227.447 252.777 227.332 252.661C227.218 252.544 227.081 252.452 226.931 252.389C226.781 252.325 226.621 252.293 226.458 252.293C226.131 252.293 225.816 252.425 225.585 252.661C225.353 252.896 225.223 253.215 225.223 253.548V257.008Z" fill="#FF5252"/>
<path opacity="0.2" d="M227.603 254.702C227.714 254.537 227.782 254.346 227.799 254.147C227.816 253.948 227.781 253.748 227.699 253.567C227.699 253.234 227.569 252.915 227.337 252.679C227.105 252.444 226.791 252.312 226.463 252.312H226.385C226.699 252.332 226.993 252.472 227.208 252.704C227.423 252.937 227.543 253.243 227.543 253.562C227.626 253.744 227.66 253.944 227.643 254.143C227.626 254.342 227.559 254.533 227.447 254.697C227.063 255.162 227.827 256.12 227.543 257.022C227.516 257.106 227.269 257.138 226.944 257.143C227.346 257.143 227.671 257.119 227.703 257.022C227.983 256.124 227.218 255.167 227.603 254.702Z" fill="white"/>
<path d="M227.186 256.929C228.105 258.406 228.463 260.173 228.193 261.899V261.955H227.452C227.6 261.33 227.6 260.678 227.452 260.053C227.311 259.325 226.91 258.676 226.326 258.231L225.607 261.951H224.916L225.607 256.929H227.186Z" fill="#F6B9AD"/>
<path d="M231.383 249.703C231.383 249.703 231.671 249.582 231.548 249.159C231.424 248.736 230.925 248.88 230.925 248.88C230.925 248.88 230.619 249.345 230.738 249.498C230.857 249.652 231.383 249.703 231.383 249.703Z" fill="#F6B9AD"/>
<path d="M227.15 253.767C227.15 253.767 230.852 252.549 231.378 249.703L230.692 249.489C230.692 249.489 227.946 252.581 226.811 252.605C225.676 252.628 227.15 253.767 227.15 253.767Z" fill="#FF5252"/>
<path opacity="0.2" d="M231.25 249.708L231.365 249.745C230.838 252.591 227.136 253.809 227.136 253.809L227.072 253.758C227.507 253.6 230.761 252.363 231.25 249.708Z" fill="white"/>
<g opacity="0.2">
<path opacity="0.2" d="M226.156 258.226L225.438 261.946H225.598L226.294 258.328C226.25 258.292 226.204 258.258 226.156 258.226Z" fill="white"/>
<path opacity="0.2" d="M227.186 256.929H227.026C227.945 258.406 228.303 260.173 228.033 261.899V261.955H228.179V261.899C228.454 260.175 228.101 258.408 227.186 256.929Z" fill="white"/>
</g>
<path opacity="0.2" d="M231.301 249.661C231.301 249.661 231.589 249.54 231.465 249.117C231.451 249.058 231.422 249.003 231.382 248.957C231.343 248.91 231.293 248.875 231.236 248.852C231.309 248.866 231.377 248.9 231.431 248.951C231.485 249.002 231.524 249.068 231.543 249.14C231.667 249.559 231.378 249.684 231.378 249.684C231.223 249.672 231.07 249.642 230.921 249.596C231.045 249.628 231.172 249.65 231.301 249.661Z" fill="white"/>
<path d="M225.223 256.873L223.722 260.091C224.599 260.135 225.472 260.242 226.335 260.412C227.996 260.732 228.788 259.947 228.788 259.947L227.722 256.873H225.223Z" fill="#263238"/>
<path d="M225.621 261.937C225.621 261.937 226.413 262.099 226.253 262.402H224.829L224.907 261.937H225.621Z" fill="#FF5252"/>
<path d="M228.152 261.937C228.152 261.937 228.944 262.099 228.783 262.402H227.36L227.438 261.937H228.152Z" fill="#FF5252"/>
<path d="M227.598 249.717C227.598 249.717 225.699 252.451 226.568 253.576L223.168 253.497C223.168 253.497 224.115 247.304 227.598 249.717Z" fill="#FCCC63"/>
<path opacity="0.2" d="M227.598 249.717C227.208 249.424 226.752 249.235 226.271 249.168C226.598 249.275 226.906 249.432 227.186 249.633C227.186 249.633 225.287 252.367 226.156 253.493L223.163 253.423V253.493L226.564 253.572C225.699 252.451 227.598 249.717 227.598 249.717Z" fill="white"/>
<path opacity="0.2" d="M227.722 256.873H227.484L228.555 259.928C228.112 260.298 227.554 260.496 226.98 260.486C227.639 260.552 228.297 260.351 228.811 259.928L227.722 256.873Z" fill="white"/>
<path opacity="0.2" d="M225.621 261.937H225.461C225.461 261.937 226.253 262.099 226.092 262.402H226.253C226.413 262.095 225.621 261.937 225.621 261.937Z" fill="white"/>
<path opacity="0.2" d="M228.152 261.937H227.992C227.992 261.937 228.783 262.099 228.623 262.402H228.783C228.944 262.095 228.152 261.937 228.152 261.937Z" fill="white"/>
<path d="M338.943 186.424L334.531 161.39L348.504 160.697V186.424H358.064L367.625 158.776" stroke="#B3B3B3" stroke-miterlimit="10"/>
<path d="M355.131 183.806H341.877C334.976 183.806 329.383 189.489 329.383 196.5V198.76C329.383 205.771 334.976 211.454 341.877 211.454H355.131C362.031 211.454 367.625 205.771 367.625 198.76V196.5C367.625 189.489 362.031 183.806 355.131 183.806Z" fill="#FC743A"/>
<path opacity="0.05" d="M354.389 183.806H343.36C339.754 183.817 336.3 185.277 333.75 187.867C331.201 190.457 329.764 193.967 329.753 197.63C329.753 197.946 329.753 198.253 329.79 198.56C330.032 195.068 331.566 191.799 334.083 189.408C336.6 187.017 339.914 185.682 343.36 185.671H354.389C357.835 185.682 361.149 187.017 363.666 189.408C366.183 191.799 367.716 195.068 367.959 198.56C367.959 198.253 367.996 197.942 367.996 197.63C367.985 193.967 366.548 190.457 363.998 187.867C361.449 185.277 357.995 183.817 354.389 183.806Z" fill="black"/>
<path d="M357.314 192.041L353.703 189.163L344.971 200.401L340.275 196.705L337.337 200.499L344.165 205.8L345.858 207.181L357.314 192.041Z" fill="url(#paint3_linear)"/>
<path d="M357.048 191.971L353.771 189.423L345.099 200.917L340.28 197.16L337.767 200.49L344.225 205.511L345.881 206.772L357.048 191.971Z" fill="#69F0AE"/>
<path d="M406.517 108.986C406.517 140.912 380.266 166.793 352.316 166.793C324.367 166.793 295.721 140.912 295.721 108.986C295.721 77.061 324.367 51.1802 352.321 51.1802C380.275 51.1802 406.517 77.061 406.517 108.986Z" fill="url(#paint4_linear)"/>
<path d="M403.922 108.986C403.922 139.419 378.902 164.086 352.257 164.086C325.611 164.086 298.307 139.419 298.307 108.986C298.307 78.5536 325.621 53.905 352.261 53.905C378.902 53.905 403.922 78.5489 403.922 108.986Z" fill="#FC743A"/>
<path d="M355.968 166.021H343.982V170.275H355.968V166.021Z" fill="#FC743A"/>
<g opacity="0.2">
<path opacity="0.2" d="M352.261 53.6958C351.625 53.6958 350.993 53.6958 350.357 53.7423C376.275 54.8815 400.119 79.0883 400.119 108.796C400.119 138.503 376.275 162.71 350.376 163.849C351.012 163.877 351.648 163.896 352.279 163.896C378.92 163.896 403.945 139.229 403.945 108.796C403.945 78.3629 378.902 53.6958 352.261 53.6958Z" fill="black"/>
</g>
<g opacity="0.2">
<path opacity="0.2" d="M301.36 108.986C301.36 78.9906 327.904 54.5839 354.165 53.905C353.785 53.905 353.405 53.905 353.025 53.905C326.385 53.905 299.076 78.5722 299.076 109.005C299.076 139.438 326.38 164.105 353.021 164.105C353.401 164.105 353.781 164.105 354.16 164.105C327.891 163.38 301.36 138.996 301.36 108.986Z" fill="white"/>
</g>
<path d="M367.771 156.354H333.328V167.76H367.771V156.354Z" fill="#FC743A"/>
<path opacity="0.2" d="M333.328 57.8992C333.328 57.8992 292.417 105.411 333.328 160.074L346.838 160.027C346.838 160.027 309.543 114.868 345.126 54.4769L338.476 56.016L333.328 57.8992Z" fill="white"/>
<path opacity="0.2" d="M368.911 57.1599C368.911 57.1599 409.822 105.397 368.911 160.06L355.401 160.013C355.401 160.013 392.696 114.445 357.112 54.0678L363.771 55.4209L368.911 57.1599Z" fill="white"/>
<defs>
<linearGradient id="paint0_linear" x1="14861.8" y1="12248.1" x2="14861.8" y2="0" gradientUnits="userSpaceOnUse">
<stop stop-color="#808080" stop-opacity="0.25"/>
<stop offset="0.54" stop-color="#808080" stop-opacity="0.12"/>
<stop offset="1" stop-color="#808080" stop-opacity="0.1"/>
</linearGradient>
<linearGradient id="paint1_linear" x1="1163.35" y1="255.475" x2="1163.35" y2="255.475" gradientUnits="userSpaceOnUse">
<stop stop-color="#808080" stop-opacity="0.25"/>
<stop offset="0.54" stop-color="#808080" stop-opacity="0.12"/>
<stop offset="1" stop-color="#808080" stop-opacity="0.1"/>
</linearGradient>
<linearGradient id="paint2_linear" x1="-15894.7" y1="9466.02" x2="-15894.7" y2="9051.67" gradientUnits="userSpaceOnUse">
<stop stop-color="#808080" stop-opacity="0.25"/>
<stop offset="0.54" stop-color="#808080" stop-opacity="0.12"/>
<stop offset="1" stop-color="#808080" stop-opacity="0.1"/>
</linearGradient>
<linearGradient id="paint3_linear" x1="347.289" y1="207.202" x2="347.33" y2="189.166" gradientUnits="userSpaceOnUse">
<stop stop-opacity="0.12"/>
<stop offset="0.55" stop-opacity="0.09"/>
<stop offset="1" stop-opacity="0.02"/>
</linearGradient>
<linearGradient id="paint4_linear" x1="101190" y1="52398.2" x2="101190" y2="23652.3" gradientUnits="userSpaceOnUse">
<stop stop-color="#808080" stop-opacity="0.25"/>
<stop offset="0.54" stop-color="#808080" stop-opacity="0.12"/>
<stop offset="1" stop-color="#808080" stop-opacity="0.1"/>
</linearGradient>
</defs>
</svg>
