<svg width="399" height="670" viewBox="0 0 399 670" fill="none" xmlns="http://www.w3.org/2000/svg">
<path d="M302.158 467.668C290.002 473.841 280.619 484.372 275.886 497.158C271.036 510.128 271.407 523.794 276.931 535.636C282.609 547.789 292.983 557.11 305.671 561.461C316.242 565.081 322.268 570.733 325.206 579.79C325.684 581.238 326.748 582.42 328.141 583.046C329.499 583.664 331.054 583.673 332.421 583.074L332.441 583.064L351.752 573.393C352.418 573.329 353.066 573.135 353.657 572.82C354.271 572.507 354.818 572.072 355.261 571.543L375.232 561.694C376.551 561.041 377.524 559.85 377.901 558.429C378.279 557.006 378.028 555.49 377.211 554.268C371.885 546.323 371.313 538.91 375.168 527.837C375.177 527.816 375.182 527.793 375.191 527.77C379.469 514.929 378.702 501.444 373.031 489.799C367.155 477.792 356.679 468.67 343.98 464.502C330.182 459.873 315.102 461.015 302.158 467.668ZM365.521 524.511C361.435 536.264 361.497 545.875 365.848 554.923L353.554 560.972L334.863 522.596C337.684 523.753 340.863 523.647 343.602 522.305C348.787 519.78 349.575 514.774 350.049 511.783C350.346 509.886 350.539 509.011 350.884 508.843C353.415 507.61 354.468 504.558 353.235 502.027C352.002 499.496 348.951 498.443 346.419 499.676C341.232 502.203 340.446 507.207 339.974 510.2C339.673 512.096 339.479 512.971 339.137 513.138C338.792 513.306 337.983 512.922 336.306 511.986C333.659 510.509 329.236 508.045 324.048 510.572C323.873 510.657 323.715 510.753 323.552 510.844C323.529 510.855 323.507 510.86 323.485 510.871C323.158 511.03 322.849 511.225 322.564 511.453C318.711 514.135 318.025 518.417 317.606 521.097C317.308 522.992 317.111 523.869 316.769 524.035C316.424 524.203 315.614 523.82 313.94 522.883C311.293 521.405 306.868 518.942 301.68 521.469C299.149 522.702 298.096 525.754 299.329 528.285C300.562 530.816 303.613 531.869 306.145 530.636C306.491 530.467 307.298 530.855 308.975 531.791C311.62 533.266 316.046 535.729 321.234 533.202C323.442 532.154 325.209 530.352 326.214 528.124L344.404 565.47L332.709 571.227C328.186 562.094 320.369 555.714 308.966 551.812C298.904 548.362 290.68 540.97 286.176 531.332C277.148 511.972 286.578 486.983 306.762 476.77C306.966 476.671 307.165 476.568 307.369 476.469C317.743 471.316 329.736 470.487 340.722 474.163C350.829 477.467 359.174 484.714 363.859 494.261C368.351 503.484 368.943 514.227 365.524 524.512L365.521 524.511Z" fill="#FC743A" fill-opacity="0.5"/>
<path d="M375.349 -41.4035C349.422 -40.9726 324.608 -30.779 305.869 -12.8585C286.774 5.27975 276.026 28.9575 275.61 53.8048C275.198 79.3148 285.174 103.892 303.246 121.898C318.306 136.892 323.903 151.574 321.384 169.509C320.996 172.383 321.829 175.29 323.69 177.52C325.498 179.708 328.15 181.019 330.986 181.133H331.028L372.101 180.678C373.294 181.123 374.563 181.331 375.837 181.284C377.148 181.26 378.445 180.972 379.643 180.437L421.994 180.228C424.793 180.209 427.449 178.983 429.276 176.867C431.109 174.75 431.942 171.947 431.563 169.178C429.073 151.158 434.267 138.005 450.08 122.281C450.113 122.253 450.142 122.22 450.175 122.187C468.185 103.793 478.104 80.0961 478.104 55.4619C478.057 30.037 467.74 5.71534 449.498 -11.9874C429.759 -31.3945 403.023 -42.0001 375.349 -41.4035ZM436.354 108.561C419.58 125.255 411.682 141.741 411.588 160.835L385.528 160.94V79.7552C389.387 84.0826 394.912 86.5493 400.712 86.5351C411.682 86.5351 417.198 78.6331 420.498 73.9127C422.586 70.9156 423.647 69.5805 424.376 69.5805C429.731 69.5805 434.072 65.2389 434.072 59.884C434.072 54.5292 429.731 50.1875 424.376 50.1875C413.401 50.1875 407.89 58.0896 404.59 62.8147C402.497 65.807 401.437 67.1422 400.712 67.1422C399.983 67.1422 398.918 65.8117 396.83 62.8147C393.535 58.0849 388.024 50.1875 377.049 50.1875C376.679 50.1875 376.329 50.2207 375.974 50.2396C375.927 50.2396 375.884 50.2301 375.837 50.2301C375.145 50.2301 374.454 50.3059 373.777 50.4574C364.957 51.8352 360.217 58.5867 357.268 62.8195C355.18 65.8117 354.114 67.1469 353.39 67.1469C352.661 67.1469 351.595 65.8165 349.512 62.8195C346.217 58.0896 340.701 50.1923 329.726 50.1923C324.371 50.1923 320.03 54.5339 320.03 59.8887C320.03 65.2436 324.371 69.5852 329.726 69.5852C330.46 69.5852 331.516 70.9204 333.604 73.9174C336.899 78.6425 342.415 86.5399 353.39 86.5399C358.039 86.5872 362.561 84.9774 366.135 82.0041V161.011L341.345 161.115C341.217 141.731 333.164 124.313 316.914 108.144C302.583 93.8643 294.676 74.3766 295.003 54.1457C295.689 13.5227 332.624 -21.3524 375.643 -22.0058C376.073 -22.0058 376.5 -22.0153 376.93 -22.0153C398.961 -22.1857 420.157 -13.6161 435.881 1.81875C450.412 15.8853 458.645 35.2262 458.707 55.4524C458.707 74.9637 450.771 93.8264 436.359 108.565L436.354 108.561Z" fill="#FC743A"/>
<path d="M427.951 200.526C427.951 195.171 423.614 190.829 418.254 190.829H335.834C330.479 190.829 326.137 195.171 326.137 200.526V240.524C326.137 245.879 330.479 250.22 335.834 250.22H418.254C423.614 250.22 427.951 245.879 427.951 240.524V200.526ZM408.558 230.827H345.53V210.222H408.558V230.827Z" fill="#FC743A"/>
<path d="M164.253 195.086C152.714 182.666 136.914 175.053 120.011 173.77C102.846 172.409 86.6352 177.529 74.3695 188.184C61.7836 199.13 54.1903 214.721 53.3306 231.377C52.6195 245.254 47.9248 254.391 38.1022 261.003C36.535 262.07 35.4853 263.745 35.2139 265.624C34.9404 267.46 35.4612 269.322 36.6452 270.751L36.6638 270.772L54.832 290.547C55.1369 291.322 55.59 292.03 56.1696 292.629C56.7541 293.256 57.4615 293.761 58.2451 294.11L76.8521 314.615C78.084 315.967 79.841 316.723 81.6688 316.687C83.4986 316.654 85.2258 315.834 86.4073 314.44C94.0825 305.354 102.748 302.133 117.305 302.953C117.333 302.957 117.362 302.956 117.392 302.958C134.207 303.679 150.066 298.148 162.046 287.384C174.39 276.251 181.71 260.606 182.347 243.999C183.16 225.92 176.635 208.284 164.253 195.086ZM117.98 290.282C102.531 289.419 91.0633 292.782 81.7359 301.08L70.2984 288.452L109.78 252.978C109.361 256.746 110.576 260.51 113.117 263.325C117.911 268.66 124.164 267.889 127.901 267.432C130.271 267.137 131.384 267.07 131.702 267.424C134.042 270.028 138.051 270.243 140.655 267.903C143.259 265.563 143.473 261.554 141.134 258.95C136.338 253.613 130.087 254.386 126.347 254.846C123.978 255.135 122.865 255.203 122.548 254.851C122.23 254.496 122.411 253.397 122.956 251.072C123.817 247.403 125.249 241.272 120.454 235.934C120.292 235.755 120.123 235.599 119.959 235.434C119.938 235.411 119.924 235.387 119.903 235.364C119.601 235.027 119.262 234.724 118.893 234.461C114.368 230.774 109.014 231.419 105.667 231.834C103.299 232.126 102.184 232.192 101.868 231.839C101.549 231.485 101.731 230.385 102.278 228.063C103.138 224.393 104.569 218.26 99.7732 212.923C97.4333 210.319 93.4248 210.104 90.8206 212.444C88.2165 214.784 88.0022 218.793 90.3421 221.397C90.6627 221.754 90.4748 222.851 89.9296 225.176C89.0716 228.843 87.6413 234.976 92.4368 240.313C94.4454 242.595 97.204 244.091 100.212 244.53L61.7899 279.052L50.9068 267.042C60.2774 258.51 65.2293 246.982 65.9921 232.015C66.6741 218.805 72.6963 206.445 82.6777 197.764C102.733 180.347 135.833 183.07 154.948 203.705C155.136 203.914 155.327 204.118 155.515 204.327C165.224 214.966 170.319 229.019 169.683 243.41C169.192 256.623 163.384 269.078 153.574 277.946C144.086 286.472 131.445 290.855 117.98 290.287L117.98 290.282Z" fill="#FC743A" fill-opacity="0.25"/>
<path d="M89.5067 575.615C82.0331 570.367 72.8543 568.131 63.8051 569.354C54.6097 570.565 46.6442 575.082 41.379 582.073C35.9778 589.253 33.7285 598.32 35.1462 607.191C36.33 614.581 34.8828 619.922 30.4507 624.509C29.7448 625.247 29.38 626.247 29.4481 627.268C29.5101 628.265 29.9937 629.188 30.7779 629.808L30.79 629.817L42.5823 638.195C42.83 638.568 43.1482 638.891 43.5208 639.141C43.8992 639.406 44.3285 639.592 44.7805 639.688L56.8859 648.401C57.6868 648.975 58.6973 649.176 59.6562 648.952C60.6164 648.728 61.4343 648.103 61.9001 647.235C64.9233 641.587 69.1269 638.917 76.8876 637.714C76.903 637.713 76.9179 637.709 76.9342 637.707C85.8738 636.198 93.6072 631.503 98.7096 624.487C103.962 617.236 106.062 608.172 104.533 599.351C102.93 589.735 97.5122 581.177 89.5067 575.615ZM75.8203 630.963C67.5848 632.243 61.9208 635.303 57.9388 640.722L50.4951 635.354L67.3106 612.231C67.5133 614.263 68.5761 616.11 70.2309 617.307C73.3554 619.579 76.5631 618.471 78.4808 617.81C79.6962 617.389 80.2748 617.229 80.4825 617.38C82.0076 618.489 84.1435 618.152 85.2526 616.626C86.3618 615.101 86.0245 612.965 84.4993 611.856C81.3735 609.583 78.1671 610.692 76.2485 611.354C75.0327 611.773 74.4541 611.934 74.2478 611.784C74.0401 611.633 74.0123 611.033 74.0383 609.747C74.0795 607.717 74.1456 604.327 71.0198 602.053C70.9146 601.977 70.8079 601.914 70.7029 601.846C70.6894 601.836 70.6792 601.824 70.6657 601.815C70.4688 601.671 70.2563 601.55 70.0321 601.453C67.2344 600.018 64.4862 600.959 62.7693 601.554C61.5549 601.974 60.9749 602.133 60.7686 601.983C60.5609 601.832 60.5331 601.233 60.5605 599.948C60.6016 597.918 60.6664 594.526 57.5406 592.253C56.0154 591.144 53.8796 591.481 52.7704 593.006C51.6613 594.531 51.9986 596.667 53.5237 597.776C53.7328 597.928 53.7569 598.527 53.7309 599.814C53.6907 601.842 53.6259 605.234 56.7517 607.507C58.0662 608.483 59.6874 608.961 61.3214 608.855L44.9569 631.357L37.8746 626.252C41.8531 620.705 43.1672 614.076 41.8881 606.105C40.7639 599.069 42.5484 591.881 46.8318 586.187C55.4415 574.759 73.1848 572.476 85.5725 581.2C85.6952 581.29 85.8186 581.375 85.9413 581.464C92.2511 585.979 96.5133 592.81 97.7947 600.463C99.0197 607.479 97.3586 614.693 93.1868 620.467C89.1454 626.024 82.9783 629.753 75.8207 630.965L75.8203 630.963Z" fill="#FC743A"/>
<path d="M54.3782 655.415C55.4874 653.89 55.1514 651.755 53.6249 650.645L30.1503 633.574C28.6251 632.465 26.4893 632.802 25.3802 634.327L17.0955 645.719C15.9863 647.244 16.3236 649.38 17.8488 650.489L41.3234 667.561C42.8499 668.671 44.9844 668.333 46.0935 666.808L54.3782 655.415ZM42.5785 660.029L24.6273 646.974L28.8952 641.106L46.8464 654.16L42.5785 660.029Z" fill="#FC743A"/>
<path d="M69.5838 326.381C72.188 324.041 72.4043 320.034 70.0624 317.428L34.048 277.346C31.7082 274.742 27.6997 274.527 25.0955 276.867L5.64386 294.345C3.03971 296.685 2.82543 300.693 5.16528 303.297L41.1796 343.38C43.5215 345.986 47.528 346.198 50.1322 343.858L69.5838 326.381ZM46.3737 330.19L18.8334 299.539L28.8539 290.535L56.3943 321.186L46.3737 330.19Z" fill="#FC743A" fill-opacity="0.25"/>
<path d="M382.721 569.917C381.488 567.386 378.438 566.332 375.905 567.566L336.945 586.541C334.414 587.774 333.361 590.826 334.594 593.357L343.803 612.264C345.035 614.795 348.087 615.848 350.619 614.615L389.578 595.64C392.112 594.406 393.162 591.355 391.929 588.824L382.721 569.917ZM380.53 588.705L350.737 603.216L345.993 593.476L375.786 578.966L380.53 588.705Z" fill="#FC743A" fill-opacity="0.5"/>
</svg>
