<svg width="411" height="868" viewBox="0 0 411 868" fill="none" xmlns="http://www.w3.org/2000/svg">
<g clip-path="url(#clip0)">
<path d="M512.057 389.12L497.603 374.047L511.649 360.577L471.83 319.055L-101.514 868.888L-61.6954 910.409L-47.6506 896.941L-33.1963 912.013L-47.2411 925.482L-7.42259 967.003L565.921 417.171L526.103 375.65L512.057 389.12ZM27.388 853.913L12.9337 838.841L73.5169 780.742L87.9712 795.814L27.388 853.913ZM148.556 737.714L134.101 722.642L194.684 664.543L209.139 679.616L148.556 737.714ZM269.722 621.517L255.268 606.445L315.852 548.345L330.306 563.417L269.722 621.517ZM390.889 505.318L376.435 490.246L437.019 432.146L451.474 447.218L390.889 505.318Z" fill="black"/>
<path d="M461.758 308.553L445.08 291.163L-128.264 840.995L-111.586 858.385L461.758 308.553Z" fill="black"/>
<path d="M592.671 445.064L575.994 427.674L2.64973 977.506L19.327 994.897L592.671 445.064Z" fill="black"/>
</g>
<g clip-path="url(#clip1)">
<path d="M448.362 95.9151L440.066 87.2646L454.112 73.7946L431.259 49.9639L-142.085 599.796L-119.232 623.627L-105.187 610.158L-96.891 618.808L-110.936 632.277L-88.0827 656.108L485.261 106.275L462.408 82.4451L448.362 95.9151ZM-36.3067 560.709L-44.6024 552.058L15.9807 493.959L24.2765 502.61L-36.3067 560.709ZM84.8608 444.51L76.5651 435.859L137.148 377.761L145.444 386.411L84.8608 444.51ZM206.027 328.312L197.731 319.662L258.316 261.562L266.612 270.212L206.027 328.312ZM327.195 212.114L318.899 203.463L379.483 145.363L387.779 154.014L327.195 212.114Z" fill="black" fill-opacity="0.3"/>
<path d="M425.478 43.9361L415.907 33.9552L-157.437 583.787L-147.866 593.768L425.478 43.9361Z" fill="black" fill-opacity="0.3"/>
<path d="M500.614 122.284L491.042 112.303L-82.3019 662.136L-72.7302 672.117L500.614 122.284Z" fill="black" fill-opacity="0.3"/>
</g>
<g clip-path="url(#clip2)">
<path d="M738.362 514.915L730.066 506.265L744.112 492.795L721.259 468.964L147.915 1018.8L170.768 1042.63L184.813 1029.16L193.109 1037.81L179.064 1051.28L201.917 1075.11L775.261 525.275L752.408 501.445L738.362 514.915ZM253.693 979.709L245.398 971.058L305.981 912.959L314.277 921.61L253.693 979.709ZM374.861 863.51L366.565 854.859L427.148 796.761L435.444 805.411L374.861 863.51ZM496.027 747.312L487.731 738.662L548.316 680.562L556.612 689.212L496.027 747.312ZM617.195 631.114L608.899 622.463L669.483 564.363L677.779 573.014L617.195 631.114Z" fill="black" fill-opacity="0.3"/>
<path d="M715.478 462.936L705.907 452.955L132.563 1002.79L142.134 1012.77L715.478 462.936Z" fill="black" fill-opacity="0.3"/>
<path d="M790.614 541.284L781.042 531.303L207.698 1081.14L217.27 1091.12L790.614 541.284Z" fill="black" fill-opacity="0.3"/>
</g>
<defs>
<clipPath id="clip0">
<rect x="388.344" y="232" width="377.177" height="794.38" transform="rotate(46.1992 388.344 232)" fill="white"/>
</clipPath>
<clipPath id="clip1">
<rect x="383.344" width="216.474" height="794.38" transform="rotate(46.1992 383.344 0)" fill="white"/>
</clipPath>
<clipPath id="clip2">
<rect x="673.344" y="419" width="216.474" height="794.38" transform="rotate(46.1992 673.344 419)" fill="white"/>
</clipPath>
</defs>
</svg>
